<svg width="1440" height="832" viewBox="0 0 1440 832" fill="none" xmlns="http://www.w3.org/2000/svg">
<g clip-path="url(#clip0_111_2574)">
<rect width="1440" height="832" fill="#26282C"/>
<rect width="1440" height="832" rx="4" fill="black" stroke="#26282C"/>
<rect y="62" width="223" height="770" fill="#26282C"/>
<rect x="545" y="288" width="865" height="544" fill="#26282C"/>
<rect x="248" y="85" width="276" height="747" fill="#26282C"/>
<path d="M0 4C0 1.79086 1.79086 0 4 0H1436C1438.21 0 1440 1.79086 1440 4V62H0V4Z" fill="#26282C"/>
<rect x="545" y="85" width="865" height="180" fill="#26282C"/>
<path opacity="0.5" d="M38.68 407.864H50.32V410.096H41.296V415.088H49.816V417.32H41.296V425H38.68V407.864ZM52.3853 412.592H54.9293V420.152C54.9293 421.208 55.1453 421.976 55.6013 422.456C56.0333 422.936 56.7533 423.2 57.7373 423.2C58.4093 423.2 59.0093 422.912 59.5853 422.384C60.1613 421.832 60.5693 421.088 60.7853 420.176V412.592H63.3293V425H60.7853V423.32C59.7293 424.664 58.4333 425.336 56.8733 425.336C53.8733 425.336 52.3853 423.656 52.3853 420.32V412.592ZM72.5249 412.256C75.5969 412.256 77.1569 413.936 77.1569 417.344V425H74.6129V417.56C74.6129 415.448 73.6289 414.392 71.7089 414.392C70.9889 414.392 70.3409 414.632 69.8129 415.16C69.2369 415.736 68.8769 416.528 68.7809 417.536V425H66.2369V412.592H68.7809V414.128C69.2609 413.504 69.8129 413.048 70.4369 412.736C71.0609 412.4 71.7569 412.256 72.5249 412.256ZM85.585 412.256C87.169 412.256 88.441 412.616 89.401 413.336C90.361 414.104 90.985 415.256 91.225 416.792H88.705C88.537 415.952 88.201 415.328 87.673 414.944C87.145 414.536 86.449 414.344 85.585 414.344C84.529 414.344 83.713 414.728 83.113 415.52C82.489 416.288 82.201 417.392 82.201 418.784C82.201 420.176 82.489 421.28 83.089 422.072C83.641 422.84 84.457 423.248 85.561 423.248C87.457 423.248 88.513 422.288 88.753 420.416H91.273C90.985 422.072 90.337 423.32 89.377 424.136C88.417 424.928 87.121 425.336 85.537 425.336C83.641 425.336 82.177 424.712 81.121 423.464C80.089 422.264 79.585 420.728 79.585 418.808C79.585 416.936 80.089 415.4 81.097 414.2C82.177 412.904 83.665 412.256 85.585 412.256ZM97.2158 408.584V412.592H100.048V414.704H97.2158V421.904C97.2158 422.24 97.2878 422.48 97.4318 422.648C97.5758 422.792 97.7918 422.888 98.1038 422.888H99.7358V425H97.6958C96.6398 425 95.8478 424.712 95.3678 424.16C94.8878 423.632 94.6718 422.888 94.6718 421.904V414.704H92.3678V412.592H94.6718V409.64L97.2158 408.584ZM103.896 407.624C104.4 407.624 104.832 407.768 105.168 408.104C105.504 408.416 105.672 408.824 105.672 409.328C105.672 409.832 105.48 410.24 105.144 410.576C104.808 410.888 104.376 411.056 103.896 411.056C103.392 411.056 102.984 410.888 102.648 410.576C102.312 410.24 102.144 409.808 102.144 409.328C102.144 408.824 102.312 408.416 102.648 408.104C102.984 407.768 103.392 407.624 103.896 407.624ZM102.624 412.592H105.168V425H102.624V412.592ZM114.324 412.256C116.196 412.256 117.708 412.88 118.836 414.128C119.94 415.352 120.516 416.912 120.516 418.808C120.516 420.68 119.964 422.24 118.86 423.44C117.708 424.688 116.196 425.336 114.324 425.336C112.452 425.336 110.94 424.688 109.788 423.44C108.684 422.24 108.132 420.68 108.132 418.808C108.132 416.912 108.684 415.352 109.812 414.128C110.94 412.88 112.452 412.256 114.324 412.256ZM114.324 414.344C113.148 414.344 112.236 414.8 111.588 415.736C111.012 416.528 110.748 417.56 110.748 418.808C110.748 420.056 111.012 421.064 111.588 421.856C112.236 422.768 113.148 423.248 114.324 423.248C115.5 423.248 116.412 422.768 117.084 421.856C117.66 421.04 117.948 420.032 117.948 418.808C117.948 417.56 117.66 416.528 117.084 415.736C116.412 414.8 115.5 414.344 114.324 414.344ZM129.22 412.256C132.292 412.256 133.852 413.936 133.852 417.344V425H131.308V417.56C131.308 415.448 130.324 414.392 128.404 414.392C127.684 414.392 127.036 414.632 126.508 415.16C125.932 415.736 125.572 416.528 125.476 417.536V425H122.932V412.592H125.476V414.128C125.956 413.504 126.508 413.048 127.132 412.736C127.756 412.4 128.452 412.256 129.22 412.256ZM143.673 407.864H157.713V410.096H152.001V425H149.409V410.096H143.673V407.864ZM165.134 412.256C166.958 412.256 168.302 412.712 169.166 413.624C169.91 414.416 170.294 415.568 170.294 417.08V425H167.942V423.248C167.462 423.872 166.862 424.376 166.142 424.736C165.326 425.12 164.366 425.336 163.262 425.336C161.966 425.336 160.958 425 160.238 424.352C159.446 423.704 159.062 422.864 159.062 421.832C159.062 420.44 159.614 419.36 160.718 418.616C161.726 417.896 163.166 417.536 164.99 417.488L167.774 417.416V416.912C167.774 415.184 166.838 414.32 164.966 414.32C164.174 414.32 163.526 414.464 163.046 414.752C162.47 415.088 162.11 415.592 161.966 416.288L159.446 416.072C159.71 414.728 160.382 413.72 161.438 413.096C162.35 412.52 163.598 412.256 165.134 412.256ZM167.774 419.264L165.158 419.336C162.83 419.384 161.678 420.2 161.678 421.736C161.678 422.216 161.87 422.6 162.278 422.912C162.662 423.224 163.19 423.392 163.838 423.392C164.918 423.392 165.83 423.056 166.598 422.408C167.366 421.76 167.774 420.944 167.774 419.984V419.264ZM173.206 407.528H175.75V414.44C176.758 412.976 178.006 412.256 179.542 412.256C181.318 412.256 182.71 412.904 183.742 414.2C184.678 415.4 185.158 416.912 185.158 418.736C185.158 420.632 184.678 422.192 183.718 423.392C182.662 424.688 181.246 425.336 179.422 425.336C177.718 425.336 176.446 424.712 175.582 423.512V425H173.206V407.528ZM178.966 414.32C178.006 414.32 177.238 414.68 176.662 415.448C175.99 416.264 175.678 417.344 175.678 418.688V418.904C175.678 420.152 175.942 421.16 176.47 421.952C177.07 422.816 177.934 423.272 179.038 423.272C180.286 423.272 181.198 422.816 181.798 421.928C182.278 421.16 182.542 420.104 182.542 418.736C182.542 417.368 182.278 416.312 181.75 415.592C181.15 414.728 180.214 414.32 178.966 414.32Z" fill="white"/>
<path opacity="0.5" d="M285.68 407.864H292.784C296.864 407.864 298.904 409.592 298.904 413.072C298.904 416.576 296.84 418.328 292.736 418.328H288.296V425H285.68V407.864ZM288.296 410.096V416.096H292.568C293.864 416.096 294.8 415.856 295.4 415.376C295.976 414.896 296.288 414.128 296.288 413.072C296.288 412.016 295.976 411.248 295.376 410.816C294.776 410.336 293.84 410.096 292.568 410.096H288.296ZM306.856 412.256C307.48 412.256 308.032 412.352 308.464 412.568V415.112C307.84 414.92 307.24 414.848 306.664 414.848C305.896 414.848 305.2 415.16 304.6 415.784C303.952 416.456 303.64 417.344 303.64 418.424V425H301.096V412.592H303.64V414.464C303.952 413.792 304.36 413.288 304.84 412.952C305.416 412.472 306.088 412.256 306.856 412.256ZM315.738 412.256C317.61 412.256 319.122 412.88 320.25 414.128C321.354 415.352 321.93 416.912 321.93 418.808C321.93 420.68 321.378 422.24 320.274 423.44C319.122 424.688 317.61 425.336 315.738 425.336C313.866 425.336 312.354 424.688 311.202 423.44C310.098 422.24 309.546 420.68 309.546 418.808C309.546 416.912 310.098 415.352 311.226 414.128C312.354 412.88 313.866 412.256 315.738 412.256ZM315.738 414.344C314.562 414.344 313.65 414.8 313.002 415.736C312.426 416.528 312.162 417.56 312.162 418.808C312.162 420.056 312.426 421.064 313.002 421.856C313.65 422.768 314.562 423.248 315.738 423.248C316.914 423.248 317.826 422.768 318.498 421.856C319.074 421.04 319.362 420.032 319.362 418.808C319.362 417.56 319.074 416.528 318.498 415.736C317.826 414.8 316.914 414.344 315.738 414.344ZM329.506 412.256C331.138 412.256 332.386 412.904 333.298 414.248V412.592H335.842V424.184C335.842 428.12 333.898 430.088 330.058 430.088C328.33 430.088 327.01 429.752 326.098 429.104C325.186 428.432 324.634 427.424 324.394 426.056H326.938C327.082 426.776 327.37 427.304 327.85 427.616C328.306 427.904 329.05 428.072 330.058 428.072C332.218 428.072 333.298 426.896 333.298 424.568V422.648C332.386 424.016 331.138 424.712 329.506 424.712C327.826 424.712 326.458 424.136 325.426 423.008C324.37 421.88 323.866 420.392 323.866 418.52C323.866 416.648 324.37 415.16 325.426 414.008C326.458 412.832 327.826 412.256 329.506 412.256ZM329.89 414.32C328.81 414.32 327.97 414.68 327.394 415.448C326.77 416.168 326.482 417.2 326.482 418.52C326.482 419.72 326.722 420.68 327.202 421.376C327.754 422.192 328.642 422.624 329.89 422.624C330.97 422.624 331.81 422.264 332.434 421.544C333.01 420.8 333.322 419.792 333.322 418.52C333.322 417.224 333.01 416.192 332.434 415.448C331.81 414.68 330.97 414.32 329.89 414.32ZM344.473 412.256C345.097 412.256 345.649 412.352 346.081 412.568V415.112C345.457 414.92 344.857 414.848 344.281 414.848C343.513 414.848 342.817 415.16 342.217 415.784C341.569 416.456 341.257 417.344 341.257 418.424V425H338.713V412.592H341.257V414.464C341.569 413.792 341.977 413.288 342.457 412.952C343.033 412.472 343.705 412.256 344.473 412.256ZM353.235 412.256C355.059 412.256 356.403 412.712 357.267 413.624C358.011 414.416 358.395 415.568 358.395 417.08V425H356.043V423.248C355.563 423.872 354.963 424.376 354.243 424.736C353.427 425.12 352.467 425.336 351.363 425.336C350.067 425.336 349.059 425 348.339 424.352C347.547 423.704 347.163 422.864 347.163 421.832C347.163 420.44 347.715 419.36 348.819 418.616C349.827 417.896 351.267 417.536 353.091 417.488L355.875 417.416V416.912C355.875 415.184 354.939 414.32 353.067 414.32C352.275 414.32 351.627 414.464 351.147 414.752C350.571 415.088 350.211 415.592 350.067 416.288L347.547 416.072C347.811 414.728 348.483 413.72 349.539 413.096C350.451 412.52 351.699 412.256 353.235 412.256ZM355.875 419.264L353.259 419.336C350.931 419.384 349.779 420.2 349.779 421.736C349.779 422.216 349.971 422.6 350.379 422.912C350.763 423.224 351.291 423.392 351.939 423.392C353.019 423.392 353.931 423.056 354.699 422.408C355.467 421.76 355.875 420.944 355.875 419.984V419.264ZM367.259 412.256C369.083 412.256 370.403 412.952 371.171 414.344C371.723 413.576 372.323 413.024 372.947 412.712C373.523 412.4 374.219 412.256 375.059 412.256C376.331 412.256 377.387 412.664 378.227 413.528C379.043 414.368 379.475 415.472 379.475 416.864V425H376.931V417.296C376.931 416.288 376.715 415.544 376.283 415.088C375.851 414.608 375.131 414.392 374.171 414.392C373.451 414.392 372.875 414.656 372.395 415.184C371.915 415.712 371.675 416.456 371.675 417.368V425H369.131V417.32C369.131 415.352 368.267 414.392 366.587 414.392C365.771 414.392 365.099 414.704 364.619 415.328C364.091 415.928 363.851 416.672 363.851 417.536V425H361.307V412.592H363.851V413.96C364.859 412.808 366.011 412.256 367.259 412.256ZM398.17 407.528C400.762 407.528 402.826 408.368 404.338 410.072C405.778 411.68 406.498 413.816 406.498 416.456C406.498 419.072 405.778 421.184 404.338 422.816C402.826 424.496 400.762 425.336 398.17 425.336C395.554 425.336 393.49 424.472 392.002 422.792C390.562 421.16 389.866 419.048 389.866 416.456C389.866 413.84 390.562 411.728 392.002 410.096C393.49 408.368 395.554 407.528 398.17 407.528ZM398.17 409.832C396.346 409.832 394.93 410.432 393.922 411.68C392.962 412.856 392.482 414.44 392.482 416.456C392.482 418.448 392.962 420.032 393.922 421.208C394.93 422.408 396.346 423.032 398.17 423.032C399.994 423.032 401.41 422.432 402.394 421.256C403.354 420.104 403.858 418.496 403.858 416.456C403.858 414.392 403.354 412.784 402.394 411.608C401.41 410.408 399.994 409.832 398.17 409.832ZM407.589 412.592H410.349L413.469 421.832L416.589 412.592H419.349L414.741 425H412.197L407.589 412.592ZM426.165 412.256C428.181 412.256 429.741 412.928 430.797 414.32C431.757 415.568 432.261 417.296 432.285 419.504H422.877C422.973 420.704 423.285 421.64 423.861 422.288C424.437 422.912 425.229 423.248 426.237 423.248C427.125 423.248 427.845 423.032 428.397 422.624C428.829 422.288 429.189 421.736 429.525 421.016H432.069C431.781 422.168 431.229 423.152 430.365 423.92C429.285 424.856 427.917 425.336 426.261 425.336C424.437 425.336 422.973 424.76 421.917 423.632C420.765 422.432 420.189 420.824 420.189 418.784C420.189 416.936 420.717 415.4 421.821 414.152C422.877 412.88 424.341 412.256 426.165 412.256ZM426.237 414.344C425.277 414.344 424.533 414.608 423.957 415.184C423.429 415.736 423.069 416.528 422.925 417.584H429.621C429.381 415.424 428.253 414.344 426.237 414.344ZM440.216 412.256C440.84 412.256 441.392 412.352 441.824 412.568V415.112C441.2 414.92 440.6 414.848 440.024 414.848C439.256 414.848 438.56 415.16 437.96 415.784C437.312 416.456 437 417.344 437 418.424V425H434.456V412.592H437V414.464C437.312 413.792 437.72 413.288 438.2 412.952C438.776 412.472 439.448 412.256 440.216 412.256ZM442.065 412.592H444.825L447.945 421.832L451.065 412.592H453.825L449.217 425H446.673L442.065 412.592ZM457.185 407.624C457.689 407.624 458.121 407.768 458.457 408.104C458.793 408.416 458.961 408.824 458.961 409.328C458.961 409.832 458.769 410.24 458.433 410.576C458.097 410.888 457.665 411.056 457.185 411.056C456.681 411.056 456.273 410.888 455.937 410.576C455.601 410.24 455.433 409.808 455.433 409.328C455.433 408.824 455.601 408.416 455.937 408.104C456.273 407.768 456.681 407.624 457.185 407.624ZM455.913 412.592H458.457V425H455.913V412.592ZM467.157 412.256C469.173 412.256 470.733 412.928 471.789 414.32C472.749 415.568 473.253 417.296 473.277 419.504H463.869C463.965 420.704 464.277 421.64 464.853 422.288C465.429 422.912 466.221 423.248 467.229 423.248C468.117 423.248 468.837 423.032 469.389 422.624C469.821 422.288 470.181 421.736 470.517 421.016H473.061C472.773 422.168 472.221 423.152 471.357 423.92C470.277 424.856 468.909 425.336 467.253 425.336C465.429 425.336 463.965 424.76 462.909 423.632C461.757 422.432 461.181 420.824 461.181 418.784C461.181 416.936 461.709 415.4 462.813 414.152C463.869 412.88 465.333 412.256 467.157 412.256ZM467.229 414.344C466.269 414.344 465.525 414.608 464.949 415.184C464.421 415.736 464.061 416.528 463.917 417.584H470.613C470.373 415.424 469.245 414.344 467.229 414.344ZM474.128 412.592H476.936L479.552 421.976L482.096 412.592H484.448L486.992 421.976L489.608 412.592H492.416L488.216 425H485.864L483.272 415.712L480.68 425H478.328L474.128 412.592Z" fill="white"/>
<path opacity="0.5" d="M895.12 166.528C897.112 166.528 898.768 167.032 900.064 168.088C901.312 169.096 902.08 170.488 902.344 172.216H899.8C899.512 171.064 898.96 170.2 898.144 169.648C897.328 169.096 896.32 168.832 895.072 168.832C893.224 168.832 891.832 169.456 890.896 170.728C890.008 171.88 889.576 173.464 889.576 175.456C889.576 177.52 890.008 179.104 890.872 180.232C891.784 181.432 893.2 182.032 895.12 182.032C896.368 182.032 897.424 181.72 898.24 181.096C899.104 180.424 899.704 179.416 900.04 178.072H902.584C902.2 180.064 901.312 181.624 899.896 182.752C898.576 183.808 896.992 184.336 895.144 184.336C892.336 184.336 890.224 183.424 888.808 181.648C887.56 180.112 886.96 178.048 886.96 175.456C886.96 172.912 887.584 170.848 888.88 169.24C890.32 167.416 892.384 166.528 895.12 166.528ZM910.587 171.256C912.411 171.256 913.755 171.712 914.619 172.624C915.363 173.416 915.747 174.568 915.747 176.08V184H913.395V182.248C912.915 182.872 912.315 183.376 911.595 183.736C910.779 184.12 909.819 184.336 908.715 184.336C907.419 184.336 906.411 184 905.691 183.352C904.899 182.704 904.515 181.864 904.515 180.832C904.515 179.44 905.067 178.36 906.171 177.616C907.179 176.896 908.619 176.536 910.443 176.488L913.227 176.416V175.912C913.227 174.184 912.291 173.32 910.419 173.32C909.627 173.32 908.979 173.464 908.499 173.752C907.923 174.088 907.563 174.592 907.419 175.288L904.899 175.072C905.163 173.728 905.835 172.72 906.891 172.096C907.803 171.52 909.051 171.256 910.587 171.256ZM913.227 178.264L910.611 178.336C908.283 178.384 907.131 179.2 907.131 180.736C907.131 181.216 907.323 181.6 907.731 181.912C908.115 182.224 908.643 182.392 909.291 182.392C910.371 182.392 911.283 182.056 912.051 181.408C912.819 180.76 913.227 179.944 913.227 178.984V178.264ZM918.947 166.528H921.491V184H918.947V166.528ZM924.947 166.528H927.491V184H924.947V166.528ZM942.419 167.584V171.592H945.251V173.704H942.419V180.904C942.419 181.24 942.491 181.48 942.635 181.648C942.779 181.792 942.995 181.888 943.307 181.888H944.939V184H942.899C941.843 184 941.051 183.712 940.571 183.16C940.091 182.632 939.875 181.888 939.875 180.904V173.704H937.571V171.592H939.875V168.64L942.419 167.584ZM953.011 171.256C954.883 171.256 956.395 171.88 957.523 173.128C958.627 174.352 959.203 175.912 959.203 177.808C959.203 179.68 958.651 181.24 957.547 182.44C956.395 183.688 954.883 184.336 953.011 184.336C951.139 184.336 949.627 183.688 948.475 182.44C947.371 181.24 946.819 179.68 946.819 177.808C946.819 175.912 947.371 174.352 948.499 173.128C949.627 171.88 951.139 171.256 953.011 171.256ZM953.011 173.344C951.835 173.344 950.923 173.8 950.275 174.736C949.699 175.528 949.435 176.56 949.435 177.808C949.435 179.056 949.699 180.064 950.275 180.856C950.923 181.768 951.835 182.248 953.011 182.248C954.187 182.248 955.099 181.768 955.771 180.856C956.347 180.04 956.635 179.032 956.635 177.808C956.635 176.56 956.347 175.528 955.771 174.736C955.099 173.8 954.187 173.344 953.011 173.344ZM974.772 166.864H977.748L984.348 184H981.54L979.932 179.584H972.564L970.956 184H968.172L974.772 166.864ZM973.356 177.424H979.14L976.308 169.672H976.212L973.356 177.424ZM991.304 171.256C992.888 171.256 994.16 171.616 995.12 172.336C996.08 173.104 996.704 174.256 996.944 175.792H994.424C994.256 174.952 993.92 174.328 993.392 173.944C992.864 173.536 992.168 173.344 991.304 173.344C990.248 173.344 989.432 173.728 988.832 174.52C988.208 175.288 987.92 176.392 987.92 177.784C987.92 179.176 988.208 180.28 988.808 181.072C989.36 181.84 990.176 182.248 991.28 182.248C993.176 182.248 994.232 181.288 994.472 179.416H996.992C996.704 181.072 996.056 182.32 995.096 183.136C994.136 183.928 992.84 184.336 991.256 184.336C989.36 184.336 987.896 183.712 986.84 182.464C985.808 181.264 985.304 179.728 985.304 177.808C985.304 175.936 985.808 174.4 986.816 173.2C987.896 171.904 989.384 171.256 991.304 171.256ZM1002.93 167.584V171.592H1005.77V173.704H1002.93V180.904C1002.93 181.24 1003.01 181.48 1003.15 181.648C1003.29 181.792 1003.51 181.888 1003.82 181.888H1005.45V184H1003.41C1002.36 184 1001.57 183.712 1001.09 183.16C1000.61 182.632 1000.39 181.888 1000.39 180.904V173.704H998.087V171.592H1000.39V168.64L1002.93 167.584ZM1009.62 166.624C1010.12 166.624 1010.55 166.768 1010.89 167.104C1011.22 167.416 1011.39 167.824 1011.39 168.328C1011.39 168.832 1011.2 169.24 1010.86 169.576C1010.53 169.888 1010.1 170.056 1009.62 170.056C1009.11 170.056 1008.7 169.888 1008.37 169.576C1008.03 169.24 1007.86 168.808 1007.86 168.328C1007.86 167.824 1008.03 167.416 1008.37 167.104C1008.7 166.768 1009.11 166.624 1009.62 166.624ZM1008.34 171.592H1010.89V184H1008.34V171.592ZM1020.04 171.256C1021.91 171.256 1023.43 171.88 1024.55 173.128C1025.66 174.352 1026.23 175.912 1026.23 177.808C1026.23 179.68 1025.68 181.24 1024.58 182.44C1023.43 183.688 1021.91 184.336 1020.04 184.336C1018.17 184.336 1016.66 183.688 1015.51 182.44C1014.4 181.24 1013.85 179.68 1013.85 177.808C1013.85 175.912 1014.4 174.352 1015.53 173.128C1016.66 171.88 1018.17 171.256 1020.04 171.256ZM1020.04 173.344C1018.87 173.344 1017.95 173.8 1017.31 174.736C1016.73 175.528 1016.47 176.56 1016.47 177.808C1016.47 179.056 1016.73 180.064 1017.31 180.856C1017.95 181.768 1018.87 182.248 1020.04 182.248C1021.22 182.248 1022.13 181.768 1022.8 180.856C1023.38 180.04 1023.67 179.032 1023.67 177.808C1023.67 176.56 1023.38 175.528 1022.8 174.736C1022.13 173.8 1021.22 173.344 1020.04 173.344ZM1034.94 171.256C1038.01 171.256 1039.57 172.936 1039.57 176.344V184H1037.03V176.56C1037.03 174.448 1036.04 173.392 1034.12 173.392C1033.4 173.392 1032.75 173.632 1032.23 174.16C1031.65 174.736 1031.29 175.528 1031.19 176.536V184H1028.65V171.592H1031.19V173.128C1031.67 172.504 1032.23 172.048 1032.85 171.736C1033.47 171.4 1034.17 171.256 1034.94 171.256Z" fill="white"/>
<path opacity="0.5" d="M680.68 22.864H683.296V30.088H692.272V22.864H694.888V40H692.272V32.32H683.296V40H680.68V22.864ZM703.274 27.256C705.29 27.256 706.85 27.928 707.906 29.32C708.866 30.568 709.37 32.296 709.394 34.504H699.986C700.082 35.704 700.394 36.64 700.97 37.288C701.546 37.912 702.338 38.248 703.346 38.248C704.234 38.248 704.954 38.032 705.506 37.624C705.938 37.288 706.298 36.736 706.634 36.016H709.178C708.89 37.168 708.338 38.152 707.474 38.92C706.394 39.856 705.026 40.336 703.37 40.336C701.546 40.336 700.082 39.76 699.026 38.632C697.874 37.432 697.298 35.824 697.298 33.784C697.298 31.936 697.826 30.4 698.93 29.152C699.986 27.88 701.45 27.256 703.274 27.256ZM703.346 29.344C702.386 29.344 701.642 29.608 701.066 30.184C700.538 30.736 700.178 31.528 700.034 32.584H706.73C706.49 30.424 705.362 29.344 703.346 29.344ZM717.157 27.256C718.981 27.256 720.325 27.712 721.189 28.624C721.933 29.416 722.317 30.568 722.317 32.08V40H719.965V38.248C719.485 38.872 718.885 39.376 718.165 39.736C717.349 40.12 716.389 40.336 715.285 40.336C713.989 40.336 712.981 40 712.261 39.352C711.469 38.704 711.085 37.864 711.085 36.832C711.085 35.44 711.637 34.36 712.741 33.616C713.749 32.896 715.189 32.536 717.013 32.488L719.797 32.416V31.912C719.797 30.184 718.861 29.32 716.989 29.32C716.197 29.32 715.549 29.464 715.069 29.752C714.493 30.088 714.133 30.592 713.989 31.288L711.469 31.072C711.733 29.728 712.405 28.72 713.461 28.096C714.373 27.52 715.621 27.256 717.157 27.256ZM719.797 34.264L717.181 34.336C714.853 34.384 713.701 35.2 713.701 36.736C713.701 37.216 713.893 37.6 714.301 37.912C714.685 38.224 715.213 38.392 715.861 38.392C716.941 38.392 717.853 38.056 718.621 37.408C719.389 36.76 719.797 35.944 719.797 34.984V34.264ZM734.157 22.528H736.701V40H734.325V38.512C733.461 39.712 732.165 40.336 730.485 40.336C728.661 40.336 727.221 39.688 726.189 38.392C725.229 37.192 724.749 35.632 724.749 33.736C724.749 31.912 725.205 30.4 726.165 29.2C727.173 27.904 728.589 27.256 730.365 27.256C731.877 27.256 733.149 27.976 734.157 29.44V22.528ZM730.941 29.32C729.693 29.32 728.757 29.728 728.157 30.592C727.629 31.312 727.365 32.368 727.365 33.736C727.365 35.104 727.605 36.16 728.109 36.928C728.685 37.816 729.621 38.272 730.869 38.272C731.973 38.272 732.813 37.816 733.437 36.952C733.965 36.16 734.229 35.152 734.229 33.904V33.688C734.229 32.344 733.893 31.264 733.269 30.448C732.645 29.68 731.877 29.32 730.941 29.32ZM744.829 27.256C746.845 27.256 748.405 27.928 749.461 29.32C750.421 30.568 750.925 32.296 750.949 34.504H741.541C741.637 35.704 741.949 36.64 742.525 37.288C743.101 37.912 743.893 38.248 744.901 38.248C745.789 38.248 746.509 38.032 747.061 37.624C747.493 37.288 747.853 36.736 748.189 36.016H750.733C750.445 37.168 749.893 38.152 749.029 38.92C747.949 39.856 746.581 40.336 744.925 40.336C743.101 40.336 741.637 39.76 740.581 38.632C739.429 37.432 738.853 35.824 738.853 33.784C738.853 31.936 739.381 30.4 740.485 29.152C741.541 27.88 743.005 27.256 744.829 27.256ZM744.901 29.344C743.941 29.344 743.197 29.608 742.621 30.184C742.093 30.736 741.733 31.528 741.589 32.584H748.285C748.045 30.424 746.917 29.344 744.901 29.344ZM758.88 27.256C759.504 27.256 760.056 27.352 760.488 27.568V30.112C759.864 29.92 759.264 29.848 758.688 29.848C757.92 29.848 757.224 30.16 756.624 30.784C755.976 31.456 755.664 32.344 755.664 33.424V40H753.12V27.592H755.664V29.464C755.976 28.792 756.384 28.288 756.864 27.952C757.44 27.472 758.112 27.256 758.88 27.256Z" fill="white"/>
<path opacity="0.5" d="M892.68 519.528C894.672 519.528 896.232 519.936 897.36 520.8C898.56 521.688 899.232 523.056 899.4 524.928H896.808C896.568 523.824 896.136 523.008 895.464 522.528C894.792 522.024 893.832 521.784 892.536 521.784C891.408 521.784 890.544 521.952 889.944 522.288C889.2 522.672 888.84 523.296 888.84 524.16C888.84 524.928 889.248 525.528 890.112 525.984C890.496 526.2 891.48 526.56 893.088 527.04C895.392 527.76 896.904 528.312 897.576 528.72C899.04 529.608 899.784 530.832 899.784 532.416C899.784 533.952 899.184 535.152 897.984 536.04C896.784 536.904 895.104 537.336 892.944 537.336C890.856 537.336 889.224 536.904 888.048 536.088C886.632 535.08 885.864 533.496 885.72 531.336H888.312C888.504 532.68 888.984 533.664 889.752 534.24C890.448 534.768 891.504 535.032 892.944 535.032C894.24 535.032 895.272 534.792 896.04 534.36C896.808 533.928 897.192 533.328 897.192 532.56C897.192 531.6 896.64 530.856 895.56 530.304C895.176 530.112 894.048 529.728 892.152 529.152C890.04 528.48 888.744 528.024 888.216 527.736C886.896 526.944 886.248 525.792 886.248 524.304C886.248 522.792 886.872 521.616 888.144 520.752C889.344 519.936 890.856 519.528 892.68 519.528ZM907.499 524.256C909.083 524.256 910.355 524.616 911.315 525.336C912.275 526.104 912.899 527.256 913.139 528.792H910.619C910.451 527.952 910.115 527.328 909.587 526.944C909.059 526.536 908.363 526.344 907.499 526.344C906.443 526.344 905.627 526.728 905.027 527.52C904.403 528.288 904.115 529.392 904.115 530.784C904.115 532.176 904.403 533.28 905.003 534.072C905.555 534.84 906.371 535.248 907.475 535.248C909.371 535.248 910.427 534.288 910.667 532.416H913.187C912.899 534.072 912.251 535.32 911.291 536.136C910.331 536.928 909.035 537.336 907.451 537.336C905.555 537.336 904.091 536.712 903.035 535.464C902.003 534.264 901.499 532.728 901.499 530.808C901.499 528.936 902.003 527.4 903.011 526.2C904.091 524.904 905.579 524.256 907.499 524.256ZM921.122 524.256C921.746 524.256 922.298 524.352 922.73 524.568V527.112C922.106 526.92 921.506 526.848 920.93 526.848C920.162 526.848 919.466 527.16 918.866 527.784C918.218 528.456 917.906 529.344 917.906 530.424V537H915.362V524.592H917.906V526.464C918.218 525.792 918.626 525.288 919.106 524.952C919.682 524.472 920.354 524.256 921.122 524.256ZM930.004 524.256C931.876 524.256 933.388 524.88 934.516 526.128C935.62 527.352 936.196 528.912 936.196 530.808C936.196 532.68 935.644 534.24 934.54 535.44C933.388 536.688 931.876 537.336 930.004 537.336C928.132 537.336 926.62 536.688 925.468 535.44C924.364 534.24 923.812 532.68 923.812 530.808C923.812 528.912 924.364 527.352 925.492 526.128C926.62 524.88 928.132 524.256 930.004 524.256ZM930.004 526.344C928.828 526.344 927.916 526.8 927.268 527.736C926.692 528.528 926.428 529.56 926.428 530.808C926.428 532.056 926.692 533.064 927.268 533.856C927.916 534.768 928.828 535.248 930.004 535.248C931.18 535.248 932.092 534.768 932.764 533.856C933.34 533.04 933.628 532.032 933.628 530.808C933.628 529.56 933.34 528.528 932.764 527.736C932.092 526.8 931.18 526.344 930.004 526.344ZM938.9 519.528H941.444V537H938.9V519.528ZM944.9 519.528H947.444V537H944.9V519.528ZM956.204 524.256C958.028 524.256 959.372 524.712 960.236 525.624C960.98 526.416 961.364 527.568 961.364 529.08V537H959.012V535.248C958.532 535.872 957.932 536.376 957.212 536.736C956.396 537.12 955.436 537.336 954.332 537.336C953.036 537.336 952.028 537 951.308 536.352C950.516 535.704 950.132 534.864 950.132 533.832C950.132 532.44 950.684 531.36 951.788 530.616C952.796 529.896 954.236 529.536 956.06 529.488L958.844 529.416V528.912C958.844 527.184 957.908 526.32 956.036 526.32C955.244 526.32 954.596 526.464 954.116 526.752C953.54 527.088 953.18 527.592 953.036 528.288L950.516 528.072C950.78 526.728 951.452 525.72 952.508 525.096C953.42 524.52 954.668 524.256 956.204 524.256ZM958.844 531.264L956.228 531.336C953.9 531.384 952.748 532.2 952.748 533.736C952.748 534.216 952.94 534.6 953.348 534.912C953.732 535.224 954.26 535.392 954.908 535.392C955.988 535.392 956.9 535.056 957.668 534.408C958.436 533.76 958.844 532.944 958.844 531.984V531.264ZM964.276 519.528H966.82V526.44C967.828 524.976 969.076 524.256 970.612 524.256C972.388 524.256 973.78 524.904 974.812 526.2C975.748 527.4 976.228 528.912 976.228 530.736C976.228 532.632 975.748 534.192 974.788 535.392C973.732 536.688 972.316 537.336 970.492 537.336C968.788 537.336 967.516 536.712 966.652 535.512V537H964.276V519.528ZM970.036 526.32C969.076 526.32 968.308 526.68 967.732 527.448C967.06 528.264 966.748 529.344 966.748 530.688V530.904C966.748 532.152 967.012 533.16 967.54 533.952C968.14 534.816 969.004 535.272 970.108 535.272C971.356 535.272 972.268 534.816 972.868 533.928C973.348 533.16 973.612 532.104 973.612 530.736C973.612 529.368 973.348 528.312 972.82 527.592C972.22 526.728 971.284 526.32 970.036 526.32ZM978.908 519.528H981.452V537H978.908V519.528ZM989.876 524.256C991.892 524.256 993.452 524.928 994.508 526.32C995.468 527.568 995.972 529.296 995.996 531.504H986.588C986.684 532.704 986.996 533.64 987.572 534.288C988.148 534.912 988.94 535.248 989.948 535.248C990.836 535.248 991.556 535.032 992.108 534.624C992.54 534.288 992.9 533.736 993.236 533.016H995.78C995.492 534.168 994.94 535.152 994.076 535.92C992.996 536.856 991.628 537.336 989.972 537.336C988.148 537.336 986.684 536.76 985.628 535.632C984.476 534.432 983.9 532.824 983.9 530.784C983.9 528.936 984.428 527.4 985.532 526.152C986.588 524.88 988.052 524.256 989.876 524.256ZM989.948 526.344C988.988 526.344 988.244 526.608 987.668 527.184C987.14 527.736 986.78 528.528 986.636 529.584H993.332C993.092 527.424 991.964 526.344 989.948 526.344ZM1005.08 519.864H1019.12V522.096H1013.41V537H1010.81V522.096H1005.08V519.864ZM1026.54 524.256C1028.36 524.256 1029.71 524.712 1030.57 525.624C1031.32 526.416 1031.7 527.568 1031.7 529.08V537H1029.35V535.248C1028.87 535.872 1028.27 536.376 1027.55 536.736C1026.73 537.12 1025.77 537.336 1024.67 537.336C1023.37 537.336 1022.36 537 1021.64 536.352C1020.85 535.704 1020.47 534.864 1020.47 533.832C1020.47 532.44 1021.02 531.36 1022.12 530.616C1023.13 529.896 1024.57 529.536 1026.4 529.488L1029.18 529.416V528.912C1029.18 527.184 1028.24 526.32 1026.37 526.32C1025.58 526.32 1024.93 526.464 1024.45 526.752C1023.88 527.088 1023.52 527.592 1023.37 528.288L1020.85 528.072C1021.12 526.728 1021.79 525.72 1022.84 525.096C1023.76 524.52 1025 524.256 1026.54 524.256ZM1029.18 531.264L1026.56 531.336C1024.24 531.384 1023.08 532.2 1023.08 533.736C1023.08 534.216 1023.28 534.6 1023.68 534.912C1024.07 535.224 1024.6 535.392 1025.24 535.392C1026.32 535.392 1027.24 535.056 1028 534.408C1028.77 533.76 1029.18 532.944 1029.18 531.984V531.264ZM1034.61 519.528H1037.16V526.44C1038.16 524.976 1039.41 524.256 1040.95 524.256C1042.72 524.256 1044.12 524.904 1045.15 526.2C1046.08 527.4 1046.56 528.912 1046.56 530.736C1046.56 532.632 1046.08 534.192 1045.12 535.392C1044.07 536.688 1042.65 537.336 1040.83 537.336C1039.12 537.336 1037.85 536.712 1036.99 535.512V537H1034.61V519.528ZM1040.37 526.32C1039.41 526.32 1038.64 526.68 1038.07 527.448C1037.4 528.264 1037.08 529.344 1037.08 530.688V530.904C1037.08 532.152 1037.35 533.16 1037.88 533.952C1038.48 534.816 1039.34 535.272 1040.44 535.272C1041.69 535.272 1042.6 534.816 1043.2 533.928C1043.68 533.16 1043.95 532.104 1043.95 530.736C1043.95 529.368 1043.68 528.312 1043.16 527.592C1042.56 526.728 1041.62 526.32 1040.37 526.32ZM1049.24 519.528H1051.79V537H1049.24V519.528ZM1060.21 524.256C1062.23 524.256 1063.79 524.928 1064.84 526.32C1065.8 527.568 1066.31 529.296 1066.33 531.504H1056.92C1057.02 532.704 1057.33 533.64 1057.91 534.288C1058.48 534.912 1059.28 535.248 1060.28 535.248C1061.17 535.248 1061.89 535.032 1062.44 534.624C1062.88 534.288 1063.24 533.736 1063.57 533.016H1066.12C1065.83 534.168 1065.28 535.152 1064.41 535.92C1063.33 536.856 1061.96 537.336 1060.31 537.336C1058.48 537.336 1057.02 536.76 1055.96 535.632C1054.81 534.432 1054.24 532.824 1054.24 530.784C1054.24 528.936 1054.76 527.4 1055.87 526.152C1056.92 524.88 1058.39 524.256 1060.21 524.256ZM1060.28 526.344C1059.32 526.344 1058.58 526.608 1058 527.184C1057.48 527.736 1057.12 528.528 1056.97 529.584H1063.67C1063.43 527.424 1062.3 526.344 1060.28 526.344Z" fill="white"/>
</g>
<defs>
<clipPath id="clip0_111_2574">
<rect width="1440" height="832" fill="white"/>
</clipPath>
</defs>
</svg>
